<?xml version="1.0" standalone="no"?>
<!DOCTYPE svg PUBLIC "-//W3C//DTD SVG 20010904//EN"
 "http://www.w3.org/TR/2001/REC-SVG-20010904/DTD/svg10.dtd">
<svg version="1.0" xmlns="http://www.w3.org/2000/svg"
 width="24.000000pt" height="24.000000pt" viewBox="0 0 24.000000 24.000000"
 preserveAspectRatio="xMidYMid meet">

<g transform="translate(0.000000,24.000000) scale(0.100000,-0.100000)"
fill="#000000" stroke="none">
<path d="M40 201 c-5 -11 -10 -28 -10 -38 0 -43 92 -133 135 -133 12 0 30 9
40 20 24 26 5 50 -40 50 -37 0 -71 31 -61 56 8 20 -19 64 -39 64 -8 0 -19 -9
-25 -19z m46 -41 c1 -38 42 -81 71 -74 10 2 25 0 33 -6 13 -9 13 -12 -4 -25
-22 -17 -44 -8 -89 34 -41 37 -58 72 -45 94 15 27 33 15 34 -23z"/>
<path d="M130 191 c0 -5 9 -11 21 -14 11 -3 23 -15 26 -26 3 -12 9 -21 14 -21
16 0 9 21 -16 45 -24 25 -45 32 -45 16z"/>
<path d="M130 164 c0 -3 6 -12 14 -20 19 -18 27 -18 20 0 -5 14 -34 31 -34 20z"/>
</g>
</svg>
