<?xml version="1.0" encoding="UTF-8" standalone="no"?>
<svg
   width="26.198843"
   height="25.163471"
   viewBox="0 0 26.198843 25.163471"
   version="1.1"
   id="svg2"
   sodipodi:docname="2e55ad15cc46c13b18cdf0473d59ce2a.svg"
   xmlns:inkscape="http://www.inkscape.org/namespaces/inkscape"
   xmlns:sodipodi="http://sodipodi.sourceforge.net/DTD/sodipodi-0.dtd"
   xmlns="http://www.w3.org/2000/svg"
   xmlns:svg="http://www.w3.org/2000/svg">
  <defs
     id="defs2" />
  <sodipodi:namedview
     id="namedview2"
     pagecolor="#ffffff"
     bordercolor="#000000"
     borderopacity="0.25"
     inkscape:showpageshadow="2"
     inkscape:pageopacity="0.0"
     inkscape:pagecheckerboard="0"
     inkscape:deskcolor="#d1d1d1" />
  <g
     id="surface1"
     transform="translate(-10.357619,-11.965387)">
    <path
       style="fill:#000000;fill-opacity:1;fill-rule:nonzero;stroke:none"
       d="m 10.683594,12.027344 c -0.339844,0.140625 -0.433594,0.554687 -0.1875,0.824218 l 0.136718,0.15625 1.171876,0.01563 c 1.015624,0.01172 1.175781,0.02344 1.199218,0.08594 0.01953,0.04297 0.1875,0.792969 0.378906,1.675781 0.195313,0.875 0.417969,1.871094 0.492188,2.207032 0.07422,0.332031 0.234375,1.039062 0.347656,1.570312 0.324219,1.472656 0.984375,4.472656 1.296875,5.882812 0.15625,0.695313 0.375,1.6875 0.492188,2.203126 0.179687,0.8125 0.222656,0.953124 0.324219,1.039062 l 0.121093,0.109375 h 7.582031 c 4.9375,0 7.648438,-0.01953 7.785157,-0.05078 0.359375,-0.08203 0.792969,-0.324219 1.121093,-0.632813 0.390626,-0.363281 0.59375,-0.746093 0.78125,-1.472656 0.07031,-0.273437 0.226563,-0.851563 0.351563,-1.289063 0.121094,-0.441406 0.355469,-1.261718 0.515625,-1.828124 0.15625,-0.566407 0.367188,-1.316407 0.46875,-1.664063 0.09766,-0.347656 0.296875,-1.046875 0.441406,-1.546875 0.234375,-0.828125 0.433594,-1.539062 0.898438,-3.164062 0.191406,-0.675782 0.203125,-0.859376 0.04297,-1.027344 L 36.332031,15 h -4.605469 c -7.171874,0 -17.195312,-0.03125 -17.21875,-0.05078 -0.0078,-0.01563 -0.09375,-0.347657 -0.1875,-0.746094 -0.46875,-2.035156 -0.464843,-2.019531 -0.675781,-2.132813 -0.214843,-0.109374 -2.714843,-0.148437 -2.960937,-0.04297 z m 9.003906,3.964844 c 0,0.01172 0.09375,0.625 0.210938,1.375 0.117187,0.746093 0.210937,1.375 0.210937,1.390624 0,0.02344 -1.074219,0.03906 -2.386719,0.03906 H 15.34375 L 15.191406,18.125 c -0.355468,-1.597656 -0.457031,-2.09375 -0.433594,-2.117188 0.02344,-0.02344 4.929688,-0.03906 4.929688,-0.01562 z m 9.09375,0.07031 c 0,0.101562 -0.414062,2.53125 -0.449219,2.65625 -0.02344,0.07422 -0.226562,0.07813 -3.613281,0.07031 L 21.125,18.773438 21.113281,18.65625 c -0.0039,-0.06641 -0.08984,-0.589844 -0.183593,-1.171875 -0.09375,-0.582031 -0.183594,-1.152344 -0.195313,-1.28125 l -0.03125,-0.21875 h 4.042969 c 3.808594,0 4.035156,0.0039 4.035156,0.07813 z m 6.539062,-0.03516 c 0.01563,0.02344 -0.148437,0.65625 -0.359374,1.40625 l -0.390626,1.363281 h -5.234374 l 0.02734,-0.132813 c 0.01172,-0.07031 0.08984,-0.503906 0.167969,-0.964843 0.234375,-1.390625 0.28125,-1.625 0.308594,-1.671875 0.03516,-0.05859 5.441406,-0.05859 5.480468,0 z m -15.023437,3.898437 c 0,0.07422 0.261719,1.761719 0.351563,2.261719 l 0.02344,0.125 -2.28125,-0.0078 -2.285156,-0.01563 -0.128907,-0.609374 c -0.07812,-0.335938 -0.199218,-0.890626 -0.269531,-1.234376 l -0.136719,-0.617187 h 2.363282 c 2.355468,0 2.363281,0 2.363281,0.09766 z m 7.847656,0.0039 c -0.167969,1.066406 -0.355469,2.238281 -0.375,2.296874 -0.02344,0.08203 -0.210937,0.08594 -3.0625,0.08594 h -3.03125 l -0.179687,-1.140625 c -0.09766,-0.621094 -0.1875,-1.179687 -0.199219,-1.242187 l -0.02344,-0.101563 h 6.882812 z m 6.09375,0.02344 c -0.07031,0.292969 -0.632812,2.238281 -0.671875,2.296875 -0.02734,0.05469 -0.445312,0.06641 -2.394531,0.0625 -1.296875,0 -2.371094,-0.01563 -2.386719,-0.02344 -0.01172,-0.01562 0.04297,-0.414062 0.128906,-0.882812 0.08203,-0.46875 0.171876,-1.015625 0.203126,-1.21875 l 0.05859,-0.359375 h 5.089844 z m -13.441406,3.410156 c 0.01953,0.01953 0.113281,0.585938 0.363281,2.136719 0.09375,0.582031 0.175782,1.101562 0.1875,1.164062 l 0.01172,0.101563 -2.132813,-0.0078 -2.132812,-0.01562 -0.367188,-1.640626 c -0.203124,-0.90625 -0.367187,-1.664062 -0.367187,-1.695312 0,-0.03906 0.117187,-0.0625 0.367187,-0.07031 0.457032,-0.01953 4.054688,0.0078 4.070313,0.02734 z m 6.746094,0.246094 c -0.01953,0.152344 -0.125,0.839844 -0.242188,1.539063 -0.117187,0.695312 -0.226562,1.34375 -0.238281,1.4375 l -0.03125,0.179687 H 22.382812 L 22.109375,25.085938 C 21.960938,24.167969 21.84375,23.398438 21.84375,23.375 c 0,-0.01563 1.289062,-0.03125 2.863281,-0.03125 h 2.871094 z m 5.71875,-0.1875 c -0.05859,0.210937 -0.292969,1.050781 -0.496094,1.800781 -0.238281,0.890625 -0.308594,1.023438 -0.640625,1.265625 -0.375,0.269531 -0.46875,0.277344 -2.34375,0.277344 -1.589844,0 -1.703125,-0.0039 -1.703125,-0.08594 0,-0.03906 0.117187,-0.808594 0.265625,-1.710938 l 0.269531,-1.625 h 2.339844 c 2.203125,0 2.332031,0.0039 2.308594,0.07813 z m 0,0"
       id="path1" />
    <path
       style="fill:#000000;fill-opacity:1;fill-rule:nonzero;stroke:none"
       d="m 16.753906,28.753906 c -0.929687,0.300782 -1.574218,1.019532 -1.710937,1.894532 -0.179688,1.195312 0.597656,2.183593 1.863281,2.371093 l 0.414062,0.05469 -0.140624,0.07422 c -0.347657,0.183593 -0.726563,0.722656 -0.886719,1.253906 -0.265625,0.902344 0.230469,2.023437 1.09375,2.460937 0.921875,0.46875 1.933593,0.308594 2.652343,-0.414062 0.441407,-0.441407 0.632813,-0.910157 0.632813,-1.53125 0,-0.65625 -0.261719,-1.230469 -0.746094,-1.636719 -0.128906,-0.113281 -0.222656,-0.21875 -0.210937,-0.238281 0.02734,-0.05078 8.769531,-0.05078 8.894531,0 0.07422,0.02734 0.05078,0.05859 -0.15625,0.234375 -0.875,0.738281 -1.023437,2.023437 -0.332031,2.960937 0.269531,0.371094 0.65625,0.636719 1.121094,0.789063 0.425781,0.140625 1.058593,0.121094 1.464843,-0.03906 0.585938,-0.222656 1.136719,-0.792969 1.339844,-1.371093 0.128906,-0.367188 0.113281,-1.097657 -0.02734,-1.453126 -0.125,-0.328124 -0.449219,-0.765624 -0.707031,-0.949218 -0.101562,-0.07813 -0.1875,-0.152344 -0.1875,-0.175782 0,-0.01953 0.351562,-0.03516 0.789062,-0.03516 1.21875,0.0039 1.125,0.01563 1.300782,-0.164062 0.261718,-0.261719 0.207031,-0.632813 -0.121094,-0.800782 -0.117188,-0.0625 -1.140625,-0.07031 -8.195312,-0.07031 h -8.0625 L 16.589844,31.835938 C 16.234375,31.65625 16.058594,31.363281 16.0625,30.96875 c 0,-0.339844 0.08594,-0.5625 0.3125,-0.8125 0.210938,-0.234375 0.519531,-0.386719 0.890625,-0.441406 0.164063,-0.02344 3.527344,-0.04297 7.640625,-0.04297 h 7.351562 l 0.136719,-0.136719 c 0.113281,-0.113281 0.136719,-0.175781 0.136719,-0.355468 0,-0.1875 -0.02344,-0.242188 -0.160156,-0.378907 l -0.160156,-0.160156 h -7.5625 l -7.5625,0.0039 z m 2.15625,5.089844 c 0.277344,0.109375 0.550782,0.371094 0.664063,0.636719 0.09375,0.222656 0.08203,0.703125 -0.02344,0.933593 -0.332031,0.734376 -1.3125,0.9375 -1.902343,0.394532 -0.804688,-0.742188 -0.296876,-2.035156 0.804687,-2.054688 0.109375,-0.0039 0.316406,0.03906 0.457031,0.08984 z m 11.375,-0.03906 c 0.273438,0.08984 0.550782,0.316406 0.683594,0.546874 0.113281,0.1875 0.132812,0.269532 0.132812,0.570313 0,0.296875 -0.02344,0.390625 -0.125,0.5625 -0.160156,0.277344 -0.292968,0.394531 -0.578124,0.523437 -0.773438,0.347657 -1.660157,-0.214843 -1.664063,-1.054687 0,-0.484375 0.214844,-0.835937 0.660156,-1.058594 0.320313,-0.160156 0.609375,-0.1875 0.890625,-0.08984 z m 0,0"
       id="path2" />
  </g>
</svg>
